<?xml version="1.0" encoding="utf-8"?>
<!-- Generator: Adobe Illustrator 25.4.1, SVG Export Plug-In . SVG Version: 6.00 Build 0)  -->
<svg version="1.1" xmlns="http://www.w3.org/2000/svg" xmlns:xlink="http://www.w3.org/1999/xlink" x="0px" y="0px"
	 viewBox="0 0 363.98 369.7" style="enable-background:new 0 0 363.98 369.7;" xml:space="preserve">
<style type="text/css">
	.st0{fill:#E00707;}
	.st1{fill:#FFFFFF;}
	.st2{fill:#E00707;stroke:#FFFFFF;stroke-width:2;stroke-miterlimit:10;}
	.st3{fill:none;stroke:#E00707;stroke-width:3;stroke-linecap:round;stroke-miterlimit:10;}
</style>
<g id="Guides">
</g>
<g id="Crop_Marks">
	<circle class="st0" cx="181.99" cy="147.27" r="83.5"/>
	<path class="st0" d="M105.65,179.71v0.01c0.13,1.02,0.46,2.03,1.02,3.01l68.49,119.18c3.08,5.36,10.77,5.36,13.84,0l68.5-119.18
		c0.56-0.98,0.9-2.01,1.02-3.03v-0.01"/>
	<circle class="st1" cx="184.5" cy="148.88" r="59.98"/>
	<path class="st2" d="M213.71,131.11h-64.18c-1.81,0-2.91-1.5-1.96-2.65l5.87-7.12c0.42-0.51,1.16-0.82,1.96-0.82h52.43
		c0.8,0,1.54,0.31,1.96,0.82l5.87,7.12C216.62,129.61,215.52,131.11,213.71,131.11z"/>
	<rect x="154.2" y="131.31" class="st0" width="55.58" height="55.58"/>
	<path class="st1" d="M183.31,148.15h-2.42c-1.67,0-3.03-1.35-3.03-3.03v-2.42c0-1.67,1.35-3.03,3.03-3.03h2.42
		c1.67,0,3.03,1.35,3.03,3.03v2.42C186.33,146.8,184.98,148.15,183.31,148.15z"/>
	<path class="st1" d="M199.25,148.15h-2.42c-1.67,0-3.03-1.35-3.03-3.03v-2.42c0-1.67,1.35-3.03,3.03-3.03h2.42
		c1.67,0,3.03,1.35,3.03,3.03v2.42C202.28,146.8,200.92,148.15,199.25,148.15z"/>
	<path class="st1" d="M167.15,148.15h-2.42c-1.67,0-3.03-1.35-3.03-3.03v-2.42c0-1.67,1.35-3.03,3.03-3.03h2.42
		c1.67,0,3.03,1.35,3.03,3.03v2.42C170.18,146.8,168.82,148.15,167.15,148.15z"/>
	<path class="st1" d="M167.15,170.36h-2.42c-1.67,0-3.03-1.35-3.03-3.03v-2.42c0-1.67,1.35-3.03,3.03-3.03h2.42
		c1.67,0,3.03,1.35,3.03,3.03v2.42C170.18,169,168.82,170.36,167.15,170.36z"/>
	<path class="st1" d="M199.25,170.36h-2.42c-1.67,0-3.03-1.35-3.03-3.03v-2.42c0-1.67,1.35-3.03,3.03-3.03h2.42
		c1.67,0,3.03,1.35,3.03,3.03v2.42C202.28,169,200.92,170.36,199.25,170.36z"/>
	<path class="st1" d="M175.59,187.5v-19.29c0-2.87,2.02-5.2,4.51-5.2h3.99c2.49,0,4.51,2.33,4.51,5.2v19.29"/>
	<line class="st3" x1="182.1" y1="107.64" x2="182.1" y2="122.06"/>
	<path class="st0" d="M195.19,110.83l-11.78-3.49c-0.65-0.19-1.3,0.29-1.3,0.97v6.99c0,0.68,0.65,1.17,1.3,0.97l11.78-3.49
		C196.16,112.49,196.16,111.12,195.19,110.83z"/>
</g>
</svg>
