<?xml version="1.0" encoding="utf-8"?>
<!-- Generator: Adobe Illustrator 25.4.1, SVG Export Plug-In . SVG Version: 6.00 Build 0)  -->
<svg version="1.1" xmlns="http://www.w3.org/2000/svg" xmlns:xlink="http://www.w3.org/1999/xlink" x="0px" y="0px"
	 viewBox="0 0 363.98 369.7" style="enable-background:new 0 0 363.98 369.7;" xml:space="preserve">
<style type="text/css">
	.st0{fill:#E00707;}
	.st1{fill:#FFFFFF;}
	.st2{fill:none;stroke:#FFFFFF;stroke-width:3;stroke-miterlimit:10;}
</style>
<g id="Guides">
</g>
<g id="Crop_Marks">
	<circle class="st0" cx="181.99" cy="147.27" r="83.5"/>
	<path class="st0" d="M105.65,179.71v0.01c0.13,1.02,0.46,2.03,1.02,3.01l68.49,119.18c3.08,5.36,10.77,5.36,13.84,0l68.5-119.18
		c0.56-0.98,0.9-2.01,1.02-3.03v-0.01"/>
	<circle class="st1" cx="182.08" cy="150.79" r="59.98"/>
	<polygon class="st0" points="229.48,132.78 133.22,132.78 144.98,123.99 219,123.99 	"/>
	<polyline class="st0" points="181.99,173.5 142.29,173.5 142.29,133.8 181.99,133.8 	"/>
	<path class="st1" d="M163.62,146.5h-2.95c-0.86,0-1.55-0.69-1.55-1.55V142c0-0.86,0.69-1.55,1.55-1.55h2.95
		c0.86,0,1.55,0.69,1.55,1.55v2.95C165.17,145.81,164.47,146.5,163.62,146.5z"/>
	<path class="st1" d="M175,146.5h-2.95c-0.86,0-1.55-0.69-1.55-1.55V142c0-0.86,0.69-1.55,1.55-1.55H175c0.86,0,1.55,0.69,1.55,1.55
		v2.95C176.55,145.81,175.86,146.5,175,146.5z"/>
	<path class="st1" d="M152.08,146.5h-2.95c-0.86,0-1.55-0.69-1.55-1.55V142c0-0.86,0.69-1.55,1.55-1.55h2.95
		c0.86,0,1.55,0.69,1.55,1.55v2.95C153.63,145.81,152.93,146.5,152.08,146.5z"/>
	<path class="st1" d="M152.08,162.36h-2.95c-0.86,0-1.55-0.69-1.55-1.55v-2.95c0-0.86,0.69-1.55,1.55-1.55h2.95
		c0.86,0,1.55,0.69,1.55,1.55v2.95C153.63,161.67,152.93,162.36,152.08,162.36z"/>
	<path class="st1" d="M163.62,162.36h-2.95c-0.86,0-1.55-0.69-1.55-1.55v-2.95c0-0.86,0.69-1.55,1.55-1.55h2.95
		c0.86,0,1.55,0.69,1.55,1.55v2.95C165.17,161.67,164.47,162.36,163.62,162.36z"/>
	<path class="st2" d="M172.69,173.97v-13.91c0-2.07,1.44-3.75,3.22-3.75h2.85c1.78,0,3.22,1.68,3.22,3.75v13.91"/>
	<polyline class="st0" points="181.99,173.5 197.19,173.5 206.48,173.5 221.69,173.5 221.69,133.8 181.99,133.8 	"/>
	<path class="st1" d="M203.31,146.5h-2.95c-0.86,0-1.55-0.69-1.55-1.55V142c0-0.86,0.69-1.55,1.55-1.55h2.95
		c0.86,0,1.55,0.69,1.55,1.55v2.95C204.86,145.81,204.17,146.5,203.31,146.5z"/>
	<path class="st1" d="M214.7,146.5h-2.95c-0.86,0-1.55-0.69-1.55-1.55V142c0-0.86,0.69-1.55,1.55-1.55h2.95
		c0.86,0,1.55,0.69,1.55,1.55v2.95C216.25,145.81,215.55,146.5,214.7,146.5z"/>
	<path class="st1" d="M191.77,146.5h-2.95c-0.86,0-1.55-0.69-1.55-1.55V142c0-0.86,0.69-1.55,1.55-1.55h2.95
		c0.86,0,1.55,0.69,1.55,1.55v2.95C193.32,145.81,192.63,146.5,191.77,146.5z"/>
	<path class="st1" d="M214.7,162.36h-2.95c-0.86,0-1.55-0.69-1.55-1.55v-2.95c0-0.86,0.69-1.55,1.55-1.55h2.95
		c0.86,0,1.55,0.69,1.55,1.55v2.95C216.25,161.67,215.55,162.36,214.7,162.36z"/>
	<path class="st1" d="M203.31,162.36h-2.95c-0.86,0-1.55-0.69-1.55-1.55v-2.95c0-0.86,0.69-1.55,1.55-1.55h2.95
		c0.86,0,1.55,0.69,1.55,1.55v2.95C204.86,161.67,204.17,162.36,203.31,162.36z"/>
	<path class="st2" d="M181.99,173.97v-13.91c0-2.07,1.44-3.75,3.22-3.75h2.85c1.78,0,3.22,1.68,3.22,3.75v13.91"/>
</g>
</svg>
