<?xml version="1.0" encoding="utf-8"?>
<!-- Generator: Adobe Illustrator 25.4.1, SVG Export Plug-In . SVG Version: 6.00 Build 0)  -->
<svg version="1.1" xmlns="http://www.w3.org/2000/svg" xmlns:xlink="http://www.w3.org/1999/xlink" x="0px" y="0px"
	 viewBox="0 0 363.98 369.7" style="enable-background:new 0 0 363.98 369.7;" xml:space="preserve">
<style type="text/css">
	.st0{fill:#E8C42D;}
	.st1{fill:#FFFFFF;}
	.st2{fill:#E8C42D;stroke:#FFFFFF;stroke-width:2;stroke-miterlimit:10;}
	.st3{fill:none;stroke:#E8C42D;stroke-width:3;stroke-linecap:round;stroke-miterlimit:10;}
</style>
<g id="Guides">
</g>
<g id="Crop_Marks">
	<circle class="st0" cx="184.49" cy="139.4" r="83.5"/>
	<path class="st0" d="M108.15,171.84v0.01c0.13,1.02,0.46,2.03,1.02,3.01l68.49,119.18c3.08,5.36,10.77,5.36,13.84,0L260,174.86
		c0.56-0.98,0.9-2.01,1.02-3.03v-0.01"/>
	<circle class="st1" cx="187" cy="141" r="59.98"/>
	<path class="st2" d="M216.21,123.23h-64.18c-1.81,0-2.91-1.5-1.96-2.65l5.87-7.12c0.42-0.51,1.16-0.82,1.96-0.82h52.43
		c0.8,0,1.54,0.31,1.96,0.82l5.87,7.12C219.13,121.74,218.02,123.23,216.21,123.23z"/>
	<rect x="156.7" y="123.44" class="st0" width="55.58" height="55.58"/>
	<path class="st1" d="M185.81,140.28h-2.42c-1.67,0-3.03-1.35-3.03-3.03v-2.42c0-1.67,1.35-3.03,3.03-3.03h2.42
		c1.67,0,3.03,1.35,3.03,3.03v2.42C188.84,138.93,187.48,140.28,185.81,140.28z"/>
	<path class="st1" d="M201.75,140.28h-2.42c-1.67,0-3.03-1.35-3.03-3.03v-2.42c0-1.67,1.35-3.03,3.03-3.03h2.42
		c1.67,0,3.03,1.35,3.03,3.03v2.42C204.78,138.93,203.42,140.28,201.75,140.28z"/>
	<path class="st1" d="M169.65,140.28h-2.42c-1.67,0-3.03-1.35-3.03-3.03v-2.42c0-1.67,1.35-3.03,3.03-3.03h2.42
		c1.67,0,3.03,1.35,3.03,3.03v2.42C172.68,138.93,171.32,140.28,169.65,140.28z"/>
	<path class="st1" d="M169.65,162.49h-2.42c-1.67,0-3.03-1.35-3.03-3.03v-2.42c0-1.67,1.35-3.03,3.03-3.03h2.42
		c1.67,0,3.03,1.35,3.03,3.03v2.42C172.68,161.13,171.32,162.49,169.65,162.49z"/>
	<path class="st1" d="M201.75,162.49h-2.42c-1.67,0-3.03-1.35-3.03-3.03v-2.42c0-1.67,1.35-3.03,3.03-3.03h2.42
		c1.67,0,3.03,1.35,3.03,3.03v2.42C204.78,161.13,203.42,162.49,201.75,162.49z"/>
	<path class="st1" d="M178.09,179.37v-19.09c0-2.84,2.02-5.14,4.51-5.14h3.99c2.49,0,4.51,2.3,4.51,5.14v19.09"/>
	<line class="st3" x1="184.6" y1="99.77" x2="184.6" y2="114.19"/>
	<path class="st0" d="M197.69,102.96l-11.78-3.49c-0.65-0.19-1.3,0.29-1.3,0.97v6.99c0,0.68,0.65,1.17,1.3,0.97l11.78-3.49
		C198.66,104.62,198.66,103.24,197.69,102.96z"/>
</g>
</svg>
