<?xml version="1.0" encoding="utf-8"?>
<!-- Generator: Adobe Illustrator 16.0.0, SVG Export Plug-In . SVG Version: 6.00 Build 0)  -->
<!DOCTYPE svg PUBLIC "-//W3C//DTD SVG 1.1//EN" "http://www.w3.org/Graphics/SVG/1.1/DTD/svg11.dtd">
<svg version="1.1" id="Layer_1" xmlns="http://www.w3.org/2000/svg" xmlns:xlink="http://www.w3.org/1999/xlink" x="0px" y="0px"
	 width="531.466px" height="77.992px" viewBox="0 0 531.466 77.992" enable-background="new 0 0 531.466 77.992"
	 xml:space="preserve">
<polygon points="38.692,101.566 0,62.875 16.928,45.947 55.62,84.639 38.692,101.566 "/>
<polygon points="67.711,96.73 4.836,33.855 38.692,0 101.567,62.875 67.711,96.73 "/>
<polygon fill="#EB7E24" points="38.692,58.039 14.509,33.855 38.692,9.674 62.875,33.855 38.692,58.039 "/>
<polygon fill="#FAF0CE" points="21.764,74.967 9.673,62.875 21.764,50.783 33.855,62.875 21.764,74.967 "/>
<polygon fill="#F8C087" points="38.692,91.895 26.601,79.803 38.692,67.711 50.783,79.803 38.692,91.895 "/>
<polygon fill="#EFE094" points="67.711,87.058 43.528,62.875 67.711,38.692 91.894,62.875 67.711,87.058 "/>
<polygon points="72.548,33.855 67.711,29.02 72.548,24.183 77.384,29.02 72.548,33.855 "/>
<polygon points="72.548,24.183 67.711,19.346 72.548,14.51 77.384,19.346 72.548,24.183 "/>
<polygon points="82.221,33.855 77.384,29.02 82.221,24.183 87.057,29.02 82.221,33.855 "/>
<path d="M117.134,40.713h4.023v4.023h4.023v4.021h-4.023V64.85h-4.023V40.713L117.134,40.713z M125.18,48.758h4.022v4.023h-4.022
	V48.758L125.18,48.758z M129.202,44.736h4.023v-4.023h4.023V64.85h-4.023V48.758h-4.023V44.736L129.202,44.736z"/>
<polygon points="151.327,40.713 171.441,40.713 171.441,44.736 155.35,44.736 155.35,48.758 167.418,48.758 167.418,52.781 
	155.35,52.781 155.35,60.826 171.441,60.826 171.441,64.85 151.327,64.85 151.327,40.713 "/>
<polygon points="185.519,40.713 205.633,40.713 205.633,44.736 197.587,44.736 197.587,64.85 193.564,64.85 193.564,44.736 
	185.519,44.736 185.519,40.713 "/>
<path d="M219.712,44.736h4.022v12.067h12.068V44.736h4.021V64.85h-4.021v-4.023h-12.068v4.023h-4.022V44.736L219.712,44.736z
	 M223.734,40.713h12.068v4.023h-12.068V40.713L223.734,40.713z"/>
<path fill="#EB7E24" d="M253.904,40.713h4.023v4.023h4.021v4.021h-4.021V64.85h-4.023V40.713L253.904,40.713z M261.949,48.758h4.023
	v4.023h-4.023V48.758L261.949,48.758z M265.972,44.736h4.021v-4.023h4.023V64.85h-4.023V48.758h-4.021V44.736L265.972,44.736z"/>
<path fill="#EB7E24" d="M288.097,44.736h4.021v16.09h-4.021V44.736L288.097,44.736z M292.118,40.713h12.068v4.023h-12.068V40.713
	L292.118,40.713z M292.118,60.826h12.068v4.023h-12.068V60.826L292.118,60.826z M304.187,44.736h4.023v16.09h-4.023V44.736
	L304.187,44.736z"/>
<path fill="#EB7E24" d="M322.288,40.713h16.092v4.023h-12.07v12.067h12.07v4.022h-12.07v4.023h-4.021V40.713L322.288,40.713z
	 M338.38,44.736h4.021v12.067h-4.021V44.736L338.38,44.736z M338.38,60.826h4.021v4.023h-4.021V60.826L338.38,60.826z"/>
<path fill="#EB7E24" d="M356.479,40.713h16.092v4.023h-12.068v12.067h12.068v4.022h-12.068v4.023h-4.023V40.713L356.479,40.713z
	 M372.571,44.736h4.023v12.067h-4.023V44.736L372.571,44.736z"/>
<polygon fill="#EB7E24" points="390.673,40.713 394.696,40.713 394.696,48.758 406.765,48.758 406.765,40.713 410.786,40.713 
	410.786,64.85 406.765,64.85 406.765,52.781 394.696,52.781 394.696,64.85 390.673,64.85 390.673,40.713 "/>
<path fill="#EB7E24" d="M424.864,44.736h4.023v16.09h-4.023V44.736L424.864,44.736z M428.888,40.713h12.068v4.023h-12.068V40.713
	L428.888,40.713z M428.888,60.826h12.068v4.023h-12.068V60.826L428.888,60.826z M440.956,44.736h4.023v16.09h-4.023V44.736
	L440.956,44.736z"/>
<path fill="#EB7E24" d="M459.058,44.736h4.023v4.021h-4.023V44.736L459.058,44.736z M459.058,56.804h4.023v4.022h-4.023V56.804
	L459.058,56.804z M463.081,40.713h12.068v4.023h-12.068V40.713L463.081,40.713z M463.081,48.758h12.068v4.023h-12.068V48.758
	L463.081,48.758z M463.081,60.826h12.068v4.023h-12.068V60.826L463.081,60.826z M475.149,52.781h4.023v8.045h-4.023V52.781
	L475.149,52.781z"/>
<polygon fill="#EB7E24" points="493.251,40.713 497.272,40.713 497.272,64.85 493.251,64.85 493.251,40.713 "/>
<path fill="#EB7E24" d="M511.353,44.736h4.023v4.021h-4.023V44.736L511.353,44.736z M511.353,56.804h4.023v4.022h-4.023V56.804
	L511.353,56.804z M515.376,40.713h12.066v4.023h-12.066V40.713L515.376,40.713z M515.376,48.758h12.066v4.023h-12.066V48.758
	L515.376,48.758z M515.376,60.826h12.066v4.023h-12.066V60.826L515.376,60.826z M527.442,52.781h4.023v8.045h-4.023V52.781
	L527.442,52.781z"/>
</svg>
